<mxfile host="Electron" modified="2023-05-15T00:47:58.274Z" agent="Mozilla/5.0 (Windows NT 10.0; Win64; x64) AppleWebKit/537.36 (KHTML, like Gecko) draw.io/21.2.8 Chrome/112.0.5615.165 Electron/24.2.0 Safari/537.36" etag="0ToB8VLctXeIL7GfljyR" version="21.2.8" type="device">
  <diagram name="Page-1" id="D-mQjGxyX3MyDuXgaXmI">
    <mxGraphModel dx="1098" dy="838" grid="1" gridSize="10" guides="1" tooltips="1" connect="1" arrows="1" fold="1" page="1" pageScale="1" pageWidth="850" pageHeight="1100" math="0" shadow="0">
      <root>
        <mxCell id="0" />
        <mxCell id="1" parent="0" />
        <mxCell id="o0A7dUN4WDblPek411Sm-7" style="edgeStyle=orthogonalEdgeStyle;rounded=0;orthogonalLoop=1;jettySize=auto;html=1;entryX=0.5;entryY=1;entryDx=0;entryDy=0;entryPerimeter=0;startArrow=classic;startFill=1;" edge="1" parent="1" source="o0A7dUN4WDblPek411Sm-1" target="o0A7dUN4WDblPek411Sm-3">
          <mxGeometry relative="1" as="geometry" />
        </mxCell>
        <mxCell id="o0A7dUN4WDblPek411Sm-1" value="Users" style="sketch=0;outlineConnect=0;fontColor=#232F3E;gradientColor=none;fillColor=#232F3D;strokeColor=none;dashed=0;verticalLabelPosition=bottom;verticalAlign=top;align=center;html=1;fontSize=12;fontStyle=0;aspect=fixed;pointerEvents=1;shape=mxgraph.aws4.user;" vertex="1" parent="1">
          <mxGeometry x="370" y="390" width="78" height="78" as="geometry" />
        </mxCell>
        <mxCell id="o0A7dUN4WDblPek411Sm-2" value="KMS Key" style="sketch=0;outlineConnect=0;fontColor=#232F3E;gradientColor=none;fillColor=#BF0816;strokeColor=none;dashed=0;verticalLabelPosition=bottom;verticalAlign=top;align=center;html=1;fontSize=12;fontStyle=0;aspect=fixed;pointerEvents=1;shape=mxgraph.aws4.addon;" vertex="1" parent="1">
          <mxGeometry x="620" y="219" width="78" height="40" as="geometry" />
        </mxCell>
        <mxCell id="o0A7dUN4WDblPek411Sm-4" style="edgeStyle=orthogonalEdgeStyle;rounded=0;orthogonalLoop=1;jettySize=auto;html=1;" edge="1" parent="1" source="o0A7dUN4WDblPek411Sm-3" target="o0A7dUN4WDblPek411Sm-2">
          <mxGeometry relative="1" as="geometry" />
        </mxCell>
        <mxCell id="o0A7dUN4WDblPek411Sm-3" value="S3 Bucket" style="sketch=0;points=[[0,0,0],[0.25,0,0],[0.5,0,0],[0.75,0,0],[1,0,0],[0,1,0],[0.25,1,0],[0.5,1,0],[0.75,1,0],[1,1,0],[0,0.25,0],[0,0.5,0],[0,0.75,0],[1,0.25,0],[1,0.5,0],[1,0.75,0]];outlineConnect=0;fontColor=#232F3E;gradientColor=#60A337;gradientDirection=north;fillColor=#277116;strokeColor=#ffffff;dashed=0;verticalLabelPosition=top;verticalAlign=bottom;align=center;html=1;fontSize=12;fontStyle=0;aspect=fixed;shape=mxgraph.aws4.resourceIcon;resIcon=mxgraph.aws4.s3;labelPosition=center;" vertex="1" parent="1">
          <mxGeometry x="370" y="200" width="78" height="78" as="geometry" />
        </mxCell>
        <mxCell id="o0A7dUN4WDblPek411Sm-5" value="API Call" style="text;html=1;align=center;verticalAlign=middle;resizable=0;points=[];autosize=1;strokeColor=none;fillColor=none;" vertex="1" parent="1">
          <mxGeometry x="500" y="210" width="70" height="30" as="geometry" />
        </mxCell>
        <mxCell id="o0A7dUN4WDblPek411Sm-8" value="Upload / Download SSE-KMS" style="text;html=1;align=center;verticalAlign=middle;resizable=0;points=[];autosize=1;strokeColor=none;fillColor=none;fontStyle=1" vertex="1" parent="1">
          <mxGeometry x="420" y="320" width="190" height="30" as="geometry" />
        </mxCell>
      </root>
    </mxGraphModel>
  </diagram>
</mxfile>
